<svg width="41" height="41" viewBox="0 0 41 41" fill="none" xmlns="http://www.w3.org/2000/svg">
<path d="M9.72749 0.956177C7.47749 0.956177 5.22124 1.81243 3.51499 3.51868C0.0962403 6.93743 0.0962403 12.5312 3.51499 15.9499L7.43374 19.8687C10.4275 22.8624 15.0837 23.2312 18.4962 20.9874C19.6525 22.1437 19.7712 22.2624 20.9275 23.4187C18.6775 26.8249 19.0525 31.4874 22.0462 34.4812L25.965 38.3999C29.3837 41.8187 34.9775 41.8187 38.3962 38.3999C41.815 34.9812 41.815 29.3874 38.3962 25.9687L34.4775 22.0499C31.4837 19.0562 26.8275 18.6874 23.415 20.9312L20.9837 18.4999C23.2337 15.0937 22.8587 10.4312 19.865 7.43743L15.9462 3.51868C14.2337 1.81243 11.9837 0.956177 9.72749 0.956177ZM9.73374 4.46243C11.0837 4.46243 12.4337 4.97493 13.465 6.00618L17.3837 9.92493C19.0025 11.5437 19.3462 13.9687 18.415 15.9249L16.6275 14.1374C15.94 13.4499 14.8275 13.4499 14.14 14.1374C13.4525 14.8249 13.4525 15.9374 14.14 16.6249C14.1462 16.6312 15.4462 17.9312 15.9275 18.4124C13.965 19.3437 11.5462 19.0062 9.92749 17.3812L6.00874 13.4624C3.95249 11.4062 3.95249 8.06243 6.00874 6.00618C7.02749 4.98118 8.37749 4.46243 9.73374 4.46243ZM28.2587 22.9874C29.6087 22.9874 30.9587 23.4999 31.99 24.5312L35.9087 28.4499C37.965 30.5062 37.965 33.8499 35.9087 35.9062C33.8525 37.9624 30.5087 37.9624 28.4525 35.9062L24.5337 31.9874C22.915 30.3687 22.5712 27.9437 23.5025 25.9874C23.9837 26.4687 25.2837 27.7687 25.29 27.7749C25.9775 28.4624 27.09 28.4624 27.7775 27.7749C28.465 27.0874 28.465 25.9749 27.7775 25.2874L25.99 23.4999C26.7025 23.1624 27.4775 22.9874 28.2587 22.9874Z" fill="#2DAB66"/>
</svg>
