<svg width="41" height="41" viewBox="0 0 41 41" fill="none" xmlns="http://www.w3.org/2000/svg">
<path d="M20.9534 0.0905762C9.90656 0.0905762 0.953369 9.04377 0.953369 20.0906C0.953369 31.1374 9.90656 40.0906 20.9534 40.0906C32.0002 40.0906 40.9534 31.1374 40.9534 20.0906C40.9534 9.04377 32.0002 0.0905762 20.9534 0.0905762ZM20.9534 37.2353C11.4853 37.2353 3.8087 29.5587 3.8087 20.0906C3.8087 10.6225 11.4853 2.9459 20.9534 2.9459C30.4215 2.9459 38.0981 10.6225 38.0981 20.0906C38.0981 29.5587 30.4215 37.2353 20.9534 37.2353ZM30.7959 25.0225C30.5534 25.5033 30.064 25.8055 29.5236 25.8097C29.2981 25.814 29.0768 25.7587 28.881 25.6523L20.3108 21.3672C19.83 21.1246 19.5278 20.6353 19.5236 20.0948V7.23526C19.5236 6.44802 20.1619 5.80547 20.9534 5.80547C21.7449 5.80547 22.3832 6.44377 22.3832 7.23526V19.2055L30.1704 23.1076C30.8683 23.465 31.1491 24.3204 30.7959 25.0225Z" fill="#2DAB66"/>
</svg>
