<svg xmlns="http://www.w3.org/2000/svg" xmlns:xlink="http://www.w3.org/1999/xlink" viewBox="0 0 1000 1000">
  <defs>
    <linearGradient id="max-icon-2__linear-stops__f8a3c91e7b2d4056a1e9f3c8b7d20456">
      <stop offset="0" stop-color="#4cf" />
      <stop offset=".662" stop-color="#53e" />
      <stop offset="1" stop-color="#93d" />
    </linearGradient>
    <linearGradient
      id="max-icon-2__linear-fill__f8a3c91e7b2d4056a1e9f3c8b7d20456"
      x1="117.847"
      x2="1000"
      y1="760.536"
      y2="500"
      gradientUnits="userSpaceOnUse"
      xlink:href="#max-icon-2__linear-stops__f8a3c91e7b2d4056a1e9f3c8b7d20456" />
  </defs>
  <path
    style="fill:url(#max-icon-2__linear-fill__f8a3c91e7b2d4056a1e9f3c8b7d20456)"
    d="m 249.6816,5e-5 c -17.2904,0 -34.1604,1.73957 -50.4433,5.05469 -16.2829,3.31512 -31.9781,8.20528 -46.9238,14.50586 -6e-4,2.3e-4 -0.001,-2.4e-4 -0.002,0 -52.3095,22.052136 -95.4201,61.380936 -122.2637,110.91797 -3.8348,7.07677 -7.338,14.36111 -10.4883,21.83398 -2e-4,5.4e-4 3e-4,0.001 0,0.002 C 13.26,167.26033 8.3698,182.95546 5.0547,199.23838 1.7396,215.52131 0,232.39133 0,249.68174 V 750.3185 c 0,17.2904 1.7396,34.1604 5.0547,50.4433 3.3151,16.2829 8.2053,31.9781 14.5058,46.9238 3e-4,6e-4 -2e-4,10e-4 0,0.002 22.0522,52.3095 61.381,95.42003 110.918,122.26373 7.0768,3.8348 14.3611,7.338 21.834,10.4883 5e-4,2e-4 0.001,-3e-4 0.002,0 14.9457,6.3005 30.6409,11.1907 46.9238,14.5057 16.2829,3.3152 33.1529,5.05467 50.4433,5.05467 h 500.6368 c 17.2904,0 34.1604,-1.73957 50.4433,-5.05467 16.2829,-3.3151 31.9781,-8.2053 46.9238,-14.5057 59.7826,-25.2021 107.5515,-72.96973 132.754,-132.75203 2e-4,-6e-4 -3e-4,-10e-4 0,-0.002 6.30051,-14.9457 11.19071,-30.6409 14.50581,-46.9238 C 998.26041,784.4789 1000,767.6089 1000,750.3185 V 249.68169 c 0,-17.29041 -1.73959,-34.16043 -5.05469,-50.44336 -3.3151,-16.28292 -8.2053,-31.97805 -14.50581,-46.92383 -3e-4,-5.4e-4 2e-4,-0.001 0,-0.002 -3.1503,-7.47287 -6.6535,-14.75721 -10.4883,-21.83398 C 943.1076,80.941486 899.997,41.612686 847.6875,19.56055 c -6e-4,-2.4e-4 -10e-4,2.3e-4 -0.002,0 C 832.7398,13.25997 817.0446,8.36981 800.7617,5.05469 784.4788,1.73957 767.6088,0 750.3184,0 Z m 256.5215,119.5 c 210.785,0 375.9473,171.00052 375.9473,381.60352 0.707,207.34598 -166.5945,376.11858 -373.9395,377.22458 -75.007,0 -109.8641,-10.95 -170.4531,-54.75 -38.325,49.275 -159.6855,87.7834 -164.9785,21.9004 0,-49.456 -10.9494,-91.248 -23.3594,-136.873 -14.782,-56.21 -31.5722,-118.80684 -31.5722,-209.50784 0,-216.626 177.7524,-379.59766 388.3554,-379.59766 z m -13.8457,187.13672 c -93.3569,3.84662 -164.6485,72.76461 -181.2441,177.13086 -14.6,92.162 11.3145,204.39832 33.3965,210.23832 10.585,2.555 37.2309,-18.9809 53.8379,-35.5879 a 189.8,189.8 0 0 0 92.7089,33.0312 c 106.273,5.112 197.0799,-75.7932 204.2149,-181.9492 4.154,-106.382 -77.669,-196.48622 -183.957,-202.57422 v -0.18359 c -6.4102,-0.33075 -12.7333,-0.36191 -18.9571,-0.10547 z" />
</svg>
