<svg xmlns="http://www.w3.org/2000/svg" viewBox="0 0 389.404 387.417" width="389.404" height="387.417">
  <g>
    <path
      d="M 58.109375 1.9902344 C 27.121375 1.9902344 2 27.110609 2 58.099609 L 2 329.31641 C 2 360.30541 27.120375 385.42773 58.109375 385.42773 L 331.29297 385.42773 C 362.28197 385.42773 387.4043 360.30541 387.4043 329.31641 L 387.4043 58.099609 C 387.4043 27.111609 362.28197 1.9902344 331.29297 1.9902344 L 58.109375 1.9902344 z M 194.48438 57.900391 C 233.07736 57.900391 264.36328 89.187294 264.36328 127.7793 C 264.36328 166.3723 233.07737 197.66016 194.48438 197.66016 C 155.89137 197.66016 124.60742 166.3723 124.60742 127.7793 C 124.60742 89.187294 155.89137 57.900391 194.48438 57.900391 z M 194.48438 98.894531 C 178.53137 98.894531 165.59961 111.8263 165.59961 127.7793 C 165.59961 143.7323 178.53137 156.66797 194.48438 156.66797 C 210.43738 156.66797 223.37109 143.7323 223.37109 127.7793 C 223.37109 111.8263 210.43738 98.894531 194.48438 98.894531 z M 133.54297 199.78125 C 137.80081 199.72123 142.10525 201.08528 145.6875 203.95703 C 145.8605 204.09703 164.11716 217.81203 193.53516 217.83203 C 222.95416 217.81203 240.83481 204.09703 241.00781 203.95703 C 249.19581 197.39303 261.1528 198.70853 267.7168 206.89453 C 274.2818 215.08153 272.96725 227.03852 264.78125 233.60352 C 263.89425 234.31452 247.1293 247.56272 219.1543 253.26172 L 261.38281 295.11328 C 268.80881 302.52728 268.81634 314.55642 261.40234 321.98242 C 253.98834 329.40742 241.9612 329.41991 234.5332 322.00391 L 193.53711 282.08203 L 156.30273 321.74609 C 152.57473 325.61309 147.60105 327.55859 142.62305 327.55859 C 137.87505 327.55859 133.12255 325.79133 129.43555 322.23633 C 121.88155 314.95233 121.66327 302.92509 128.94727 295.37109 L 169.02734 253.48242 C 140.26834 247.91742 122.81306 234.32452 121.91406 233.60352 C 113.72806 227.03852 112.41352 215.08153 118.97852 206.89453 C 122.67077 202.28991 128.0686 199.85842 133.54297 199.78125 z "
      style="fill:#f7931e;fill-opacity:1" />
  </g>
</svg>
