<svg width="50" height="41" viewBox="0 0 50 41" fill="none" xmlns="http://www.w3.org/2000/svg">
<path fill-rule="evenodd" clip-rule="evenodd" d="M39.5204 0.28931C39.9759 0.333754 40.3926 0.672661 40.5093 1.10599L43.8926 13.1893C46.9759 14.8838 49.0315 18.1504 49.0315 21.956V31.4004C49.0315 31.9838 48.5037 32.5115 47.9204 32.5115H45.6981V37.0782C45.6981 38.1504 44.987 38.9338 44.1704 39.456C43.3537 39.9782 42.3315 40.2893 41.2537 40.2893C39.9592 40.2893 38.887 39.9949 38.0926 39.4226C37.2981 38.8504 36.8092 37.9727 36.8092 37.0782V32.5115H12.987V37.0782C12.987 38.1504 12.2759 38.9338 11.4592 39.456C10.6426 39.9782 9.62036 40.2893 8.54258 40.2893C7.24813 40.2893 6.17591 39.9949 5.38147 39.4226C4.58702 38.8504 4.09813 37.9727 4.09813 37.0782V32.5115H1.25369C0.670356 32.5115 0.142578 31.9838 0.142578 31.4004V21.956C0.142578 18.0338 2.54813 14.7504 5.87036 13.1004L9.22036 1.10599C9.35369 0.639327 9.83147 0.283754 10.3315 0.28931C20.0259 0.28931 29.7204 0.28931 39.4092 0.28931C39.4481 0.28931 39.4815 0.28931 39.5204 0.28931ZM38.5259 2.51153C29.4148 2.51153 20.3092 2.51153 11.1981 2.51153L8.48702 12.1838C9.20369 12.0338 9.94258 11.956 10.6926 11.956H11.2481V11.7282C11.2481 10.5949 11.8815 9.63377 12.7259 9.0171C13.5704 8.40043 14.6148 8.06153 15.6926 8.06153C16.7704 8.06153 17.8204 8.40043 18.6592 9.0171C19.4981 9.63377 20.137 10.5949 20.137 11.7282V11.956H39.0259C39.787 11.956 40.5204 12.0616 41.2315 12.2171L38.5259 2.51153ZM15.6981 10.1504C15.1092 10.1504 14.4926 10.356 14.0815 10.656C13.6704 10.956 13.4759 11.2949 13.4759 11.7338V11.9615H17.9204V11.7338C17.9204 11.3004 17.7204 10.956 17.3148 10.656C16.9092 10.356 16.287 10.1504 15.6981 10.1504ZM39.0315 14.1782H10.6981C6.27591 14.1782 2.3648 17.6171 2.3648 21.956V30.2893H46.8092V21.956C46.8092 17.5338 43.4537 14.1782 39.0315 14.1782ZM43.4759 32.5115H39.0315V37.0782C39.0315 37.256 39.1148 37.456 39.4315 37.6838C39.7481 37.9171 40.3259 38.1338 41.2537 38.1338C41.8426 38.1338 42.5037 37.9282 42.937 37.6449C43.3704 37.3671 43.4759 37.0727 43.4759 37.0727V32.5115ZM10.7648 32.5115H6.32036V37.0782C6.32036 37.256 6.40369 37.456 6.72036 37.6838C7.03702 37.9171 7.6148 38.1338 8.54258 38.1338C9.13147 38.1338 9.79258 37.9282 10.2259 37.6449C10.6592 37.3671 10.7648 37.0727 10.7648 37.0727V32.5115Z" fill="#2DAB66"/>
<path fill-rule="evenodd" clip-rule="evenodd" d="M37.9203 16.956C40.5926 17.0115 42.3315 19.0782 42.3648 21.4004C42.3481 23.9504 40.1481 25.806 37.9203 25.8449C35.3092 25.8782 33.5037 23.7893 33.4759 21.4004C33.437 18.9115 35.4648 16.9838 37.9203 16.956ZM37.9203 19.1782C36.3203 19.1671 35.7092 20.1949 35.6981 21.4004C35.8314 22.9893 36.7759 23.6838 37.9203 23.6227C39.237 23.6004 40.087 22.6838 40.1426 21.4004C40.1815 19.9782 39.1537 19.1949 37.9203 19.1782Z" fill="#2DAB66"/>
<path fill-rule="evenodd" clip-rule="evenodd" d="M11.8092 16.956C14.4092 16.9615 16.2203 19.0782 16.2536 21.4004C16.2203 23.9171 14.4036 25.856 11.8092 25.8449C9.17586 25.8504 7.3703 23.8227 7.36475 21.4004C7.38141 18.906 9.45363 16.9893 11.8092 16.956ZM11.8092 19.1782C10.4314 19.2838 9.65363 19.9227 9.58697 21.4004C9.7203 22.8671 10.3481 23.6115 11.8092 23.6227C13.187 23.5727 14.0203 22.5115 14.0314 21.4004C14.0259 19.8449 12.9925 19.0949 11.8092 19.1782Z" fill="#2DAB66"/>
<path fill-rule="evenodd" clip-rule="evenodd" d="M30.387 19.7338C31.0315 19.7227 31.5592 20.2171 31.5648 20.8282C31.5759 21.4393 31.0592 21.9449 30.4203 21.956C30.4092 21.956 30.3981 21.956 30.387 21.956H19.3481C18.7037 21.9671 18.1759 21.4727 18.1703 20.8616C18.1592 20.2504 18.6759 19.7449 19.3148 19.7338C19.3259 19.7338 19.337 19.7338 19.3481 19.7338H30.387Z" fill="#2DAB66"/>
<path fill-rule="evenodd" clip-rule="evenodd" d="M32.2314 23.0671C32.937 23.056 33.5203 23.5505 33.5314 24.1616C33.5425 24.7727 32.9759 25.2782 32.2703 25.2893C32.2592 25.2893 32.2481 25.2893 32.2314 25.2893H17.5037C16.7981 25.3004 16.2148 24.806 16.2037 24.1949C16.1925 23.5838 16.7592 23.0782 17.4648 23.0671C17.4759 23.0671 17.487 23.0671 17.5037 23.0671H32.2314Z" fill="#2DAB66"/>
</svg>
