<svg width="41" height="41" viewBox="0 0 41 41" fill="none" xmlns="http://www.w3.org/2000/svg">
<path d="M22.1027 19.146H21.7658V12.8723H22.1027C23.4921 12.8723 24.7132 13.7986 25.0922 15.1881C25.2606 15.8197 25.9343 16.1986 26.5658 16.0302C27.1974 15.8618 27.5764 15.1881 27.4079 14.5565C26.7764 12.1565 24.5869 10.5144 22.1027 10.5144H21.7658V7.14599C21.7658 6.4723 21.2185 5.96704 20.5869 5.96704C19.9132 5.96704 19.4079 6.51441 19.4079 7.14599V10.5144H19.0711C17.5974 10.5144 16.2079 11.1039 15.1974 12.1144C14.1448 13.167 13.5974 14.5144 13.5974 15.9881C13.5974 19.0197 16.0816 21.5039 19.1132 21.5039H19.45V27.7355H19.1132C17.7237 27.7355 16.5027 26.8091 16.1237 25.5039C15.9974 24.9565 15.5343 24.5355 14.9448 24.5355C14.2711 24.5355 13.7658 25.0828 13.7658 25.7144C13.7658 25.8407 13.7658 25.9249 13.8079 26.0513C14.4816 28.4513 16.629 30.0934 19.1132 30.0934H19.45V33.4618C19.45 34.1355 19.9974 34.6407 20.629 34.6407C21.3027 34.6407 21.8079 34.0934 21.8079 33.4618V30.0934H22.1448C25.1764 30.0934 27.6606 27.6091 27.6606 24.5776C27.6606 23.1039 27.0711 21.7144 26.0606 20.7039C24.9658 19.6934 23.5764 19.146 22.1027 19.146ZM19.0711 19.146C17.3448 19.146 15.9553 17.7565 15.9553 16.0302C15.9553 15.1881 16.2921 14.3881 16.8395 13.8407C17.429 13.2513 18.229 12.9144 19.029 12.9144H19.3658V19.146H19.0711ZM22.1027 27.7776H21.7658V21.5039H22.1027C22.9448 21.5039 23.7027 21.8407 24.2921 22.4302C24.8816 23.0197 25.1764 23.7776 25.1764 24.6197C25.2185 26.346 23.829 27.7776 22.1027 27.7776Z" fill="#2DAB66"/>
<path d="M20.5869 0.324951C9.55533 0.324951 0.586914 9.29337 0.586914 20.325C0.586914 31.3565 9.55533 40.325 20.5869 40.325C31.6185 40.325 40.5869 31.3565 40.5869 20.325C40.5869 9.29337 31.6185 0.324951 20.5869 0.324951ZM2.98691 20.325C2.98691 15.9039 4.62902 11.8618 7.36586 8.746L10.3553 11.7355C10.608 11.9881 10.9027 12.0723 11.1974 12.0723C11.4922 12.0723 11.7869 11.946 12.0395 11.7355C12.5027 11.2723 12.5027 10.5144 12.0395 10.0513L9.05007 7.06179C12.1659 4.36706 16.208 2.68285 20.629 2.68285C30.3553 2.68285 38.229 10.5986 38.229 20.2828C38.229 24.7039 36.5869 28.746 33.8501 31.8618L30.8606 28.8723C30.3974 28.4092 29.6395 28.4092 29.1764 28.8723C28.7132 29.3355 28.7132 30.0934 29.1764 30.5565L32.1659 33.546C29.0501 36.2407 25.008 37.925 20.5869 37.925C10.8606 37.925 2.98691 30.0513 2.98691 20.325Z" fill="#2DAB66"/>
</svg>
