<svg  viewBox="0 0 30 37" fill="none" xmlns="http://www.w3.org/2000/svg">
<path d="M14.1461 14.8645V15.7221C12.2617 15.7221 10.7354 17.2571 10.7354 19.1523C10.7354 21.0475 12.2617 22.5825 14.1461 22.5825H15.8515C16.7895 22.5825 17.5569 23.3543 17.5569 24.2976C17.5569 25.2409 16.7895 26.0127 15.8515 26.0127H11.588C11.1191 26.0127 10.7354 26.3986 10.7354 26.8702C10.7354 27.3419 11.1191 27.7278 11.588 27.7278H14.1461V28.5853C14.1461 29.057 14.5298 29.4429 14.9988 29.4429C15.4678 29.4429 15.8515 29.057 15.8515 28.5853V27.7278C17.7359 27.7278 19.2623 26.1928 19.2623 24.2976C19.2623 22.4024 17.7359 20.8674 15.8515 20.8674H14.1461C13.2082 20.8674 12.4407 20.0956 12.4407 19.1523C12.4407 18.209 13.2082 17.4372 14.1461 17.4372H18.4096C18.8785 17.4372 19.2623 17.0513 19.2623 16.5796C19.2623 16.108 18.8785 15.7221 18.4096 15.7221H15.8515V14.8645C15.8515 14.3929 15.4678 14.007 14.9988 14.007C14.5298 14.007 14.1461 14.3929 14.1461 14.8645Z" fill="black"/>
<path d="M15.6718 0.620936C15.3478 0.200736 14.64 0.200736 14.316 0.620936L0.672979 18.5695C0.47686 18.8267 0.442753 19.1783 0.58771 19.4699C0.732667 19.7615 1.03111 19.9501 1.35513 19.9501H5.61858V35.4461C5.61858 35.9177 6.00229 36.3036 6.47127 36.3036H23.5251C23.9941 36.3036 24.3778 35.9177 24.3778 35.4461V19.9501H28.6412C28.9653 19.9501 29.2637 19.7615 29.4086 19.4699C29.5536 19.1783 29.5195 18.8267 29.3234 18.5695L15.6718 0.620936ZM23.5251 18.235C23.0561 18.235 22.6724 18.6209 22.6724 19.0926V34.5885H7.32396V19.0926C7.32396 18.6209 6.94025 18.235 6.47127 18.235H3.07757L14.9982 2.559L26.9188 18.235H23.5251Z" fill="black"/>
</svg>
