<svg width="47" height="41" viewBox="0 0 47 41" fill="none" xmlns="http://www.w3.org/2000/svg">
<path d="M42.0042 12.5227C41.3664 12.5227 40.8488 12.005 40.8488 11.3673C40.8488 10.7295 41.3664 10.2119 42.0042 10.2119C43.3167 10.2119 44.3843 9.14427 44.3843 7.83174C44.3843 6.5192 43.3167 5.45161 42.0042 5.45161C41.3664 5.45161 40.8488 4.93399 40.8488 4.29621C40.8488 3.65843 41.3664 3.14081 42.0042 3.14081C44.5923 3.14081 46.6951 5.24826 46.6951 7.83174C46.6951 10.4152 44.5923 12.5227 42.0042 12.5227Z" fill="#2DAB66"/>
<path d="M36.1486 40.0905H32.1232C31.5455 40.0905 31.051 39.6607 30.977 39.083L30.4779 35.2656C26.776 36.1714 22.7459 36.1668 19.0486 35.2471L18.5449 39.0877C18.4709 39.6654 17.9811 40.0952 17.3987 40.0952H13.3733C12.8973 40.0952 12.4675 39.7994 12.2965 39.3557L8.11855 28.5596C7.99839 28.4117 7.87823 28.2592 7.76269 28.1067L0.899602 21.5672C0.673143 21.3499 0.543738 21.0542 0.543738 20.7399L0.479035 13.1651C0.474414 12.5319 0.978169 12.0143 1.60671 12.0004C3.70954 11.9496 5.9695 11.5105 6.34847 11.0853C6.84299 10.4984 7.72109 9.62492 8.4929 8.85773C8.8349 8.51574 9.15841 8.19685 9.41722 7.93341C9.67603 7.2679 8.9643 4.44872 7.90596 1.95306C7.77655 1.65265 7.78579 1.31065 7.91982 1.01487C8.05385 0.719087 8.31266 0.492628 8.62693 0.395574C12.4351 -0.782935 15.6564 1.74046 17.2647 3.38575C17.4265 3.33029 17.579 3.27946 17.7315 3.23324C19.9915 2.52613 22.3762 2.16565 24.8118 2.16565C35.9406 2.16565 44.9943 9.74046 44.9943 19.053C44.9943 22.5516 43.728 25.9022 41.334 28.7537L37.23 39.3511C37.0544 39.7948 36.6246 40.0905 36.1486 40.0905ZM33.1353 37.7797H35.3537L39.2404 27.737C39.2867 27.6122 39.356 27.5013 39.4438 27.3996C41.5559 24.9409 42.6743 22.0524 42.6743 19.053C42.6743 11.016 34.6558 4.47645 24.8025 4.47645C22.598 4.47645 20.449 4.79996 18.4109 5.43775C18.0874 5.53942 17.7454 5.65958 17.334 5.8121C16.8857 5.9831 16.3727 5.85369 16.0585 5.49321C14.9724 4.24537 12.9389 2.37824 10.5726 2.40135C11.5016 4.87853 12.375 8.14139 11.1365 9.47241C10.8453 9.77281 10.4941 10.1241 10.1197 10.4984C9.38025 11.2332 8.54374 12.0651 8.11393 12.5735C7.12953 13.7428 4.48135 14.1264 2.79908 14.2558L2.84992 20.2361L9.42646 26.503C9.47268 26.5492 9.51427 26.5955 9.55125 26.6463C9.69914 26.845 9.85627 27.0391 10.0134 27.2332C10.092 27.3303 10.1567 27.4366 10.2029 27.5568L14.1636 37.7844H16.382L16.9273 33.6295C16.9735 33.2922 17.163 32.9871 17.4496 32.8069C17.7361 32.622 18.092 32.5758 18.4155 32.6775C20.4582 33.3153 22.6027 33.6388 24.7979 33.6388C26.9655 33.6388 29.0868 33.3245 31.1018 32.7006C31.4253 32.5989 31.7812 32.6498 32.0677 32.8346C32.3542 33.0195 32.5437 33.3199 32.59 33.6573L33.1353 37.7797Z" fill="#2DAB66"/>
<path d="M33.0059 11.5105C32.7933 11.5105 32.5761 11.4504 32.382 11.3257C31.1757 10.5492 29.8216 9.97152 28.3612 9.60641C25.7869 8.96863 22.9493 9.05182 20.4351 9.83749C19.8667 10.0177 19.3074 10.2303 18.7806 10.4753C18.2029 10.7433 17.5143 10.4938 17.2462 9.91606C16.9782 9.33836 17.2277 8.64974 17.8054 8.38169C18.4247 8.09515 19.081 7.84096 19.7419 7.63299C21.3594 7.12461 23.0648 6.87042 24.8072 6.87042C26.2029 6.87042 27.5847 7.0368 28.9111 7.36493C30.6258 7.79012 32.211 8.4695 33.6344 9.38458C34.1705 9.7312 34.323 10.4475 33.9764 10.9837C33.7546 11.3257 33.3849 11.5105 33.0059 11.5105Z" fill="#2DAB66"/>
<path d="M12.6986 14.2003C13.3367 14.2003 13.854 13.683 13.854 13.0449C13.854 12.4068 13.3367 11.8895 12.6986 11.8895C12.0605 11.8895 11.5432 12.4068 11.5432 13.0449C11.5432 13.683 12.0605 14.2003 12.6986 14.2003Z" fill="#2DAB66"/>
</svg>
