<svg width="34" height="41" viewBox="0 0 34 41" fill="none" xmlns="http://www.w3.org/2000/svg">
<path d="M33.7187 10.6097C33.6779 9.54818 33.6779 8.52751 33.6779 7.54767C33.6779 6.77196 33.0655 6.15956 32.2898 6.15956C26.2882 6.11873 21.7156 4.40401 17.9187 0.729604C17.388 0.198856 16.4898 0.198856 15.9591 0.729604C12.1622 4.40401 7.58958 6.11873 1.62887 6.11873C0.853164 6.11873 0.240763 6.73113 0.240763 7.50684C0.240763 8.48668 0.240763 9.50735 0.199937 10.6097C-0.00419714 20.6939 -0.289983 34.4525 16.4898 40.2499C16.6531 40.2907 16.7756 40.3315 16.9389 40.3315C17.1022 40.3315 17.2655 40.2907 17.388 40.2499C34.1678 34.4484 33.882 20.6939 33.7187 10.6097ZM16.9389 37.4328C2.56789 32.2029 2.77202 20.7715 2.97616 10.6913C2.97616 10.0789 3.01698 9.50735 3.01698 8.93578C8.61024 8.64999 13.1012 6.97609 16.9389 3.6283C20.7766 6.97609 25.2676 8.69082 30.8608 8.89495C30.8608 9.46653 30.8608 10.0381 30.9016 10.6505C31.1058 20.7715 31.3099 32.2029 16.9389 37.4328Z" fill="#2DAB66"/>
<path d="M21.7565 15.464L15.02 22.2004L12.1213 19.3017C11.5906 18.7709 10.6924 18.7709 10.1208 19.3017C9.59009 19.8324 9.59009 20.7306 10.1208 21.3022L13.9994 25.1807C14.2852 25.4665 14.6118 25.589 14.9792 25.589C15.3467 25.589 15.7141 25.4665 15.9591 25.1807L23.7161 17.4236C24.2469 16.8929 24.2469 15.9947 23.7161 15.4231C23.1854 14.8924 22.2872 14.8924 21.7565 15.464Z" fill="#2DAB66"/>
</svg>
