<svg xmlns="http://www.w3.org/2000/svg" viewBox="0 0 240.1 240.1">
  <defs>
    <linearGradient
      id="telegram-2019-fill-color"
      gradientUnits="userSpaceOnUse"
      x1="-838.04102"
      y1="660.58099"
      x2="-838.04102"
      y2="660.34271"
      gradientTransform="matrix(1000,0,0,-1000,838161,660581)">
      <stop offset="0" stop-color="#2AABEE" />
      <stop offset="1" stop-color="#229ED9" />
    </linearGradient>
  </defs>
  <path
    fill="url(#telegram-2019-fill-color)"
    d="M 120.09961 0 A 120.1 120.1 0 0 0 0 120.09961 A 120.1 120.1 0 0 0 120.09961 240.19922 A 120.1 120.1 0 0 0 240.19922 120.09961 A 120.1 120.1 0 0 0 120.09961 0 z M 169.09961 72.199219 C 170.09961 72.199219 172.30078 72.399609 173.80078 73.599609 C 175.00078 74.599609 175.3 75.900391 175.5 76.900391 C 175.7 77.900391 175.89922 79.999609 175.69922 81.599609 C 173.89922 100.59961 166.09961 146.70039 162.09961 167.90039 C 160.39961 176.90039 157.10039 179.89922 153.90039 180.19922 C 146.90039 180.79922 141.60039 175.59922 134.90039 171.19922 C 124.30039 164.29922 118.39961 159.99922 108.09961 153.19922 C 96.199609 145.39922 103.89922 141.09961 110.69922 134.09961 C 112.49922 132.29961 143.20078 104.30078 143.80078 101.80078 C 143.90078 101.50078 143.89922 100.29922 143.19922 99.699219 C 142.49922 99.099219 141.49922 99.3 140.69922 99.5 C 139.59922 99.7 122.79961 110.9 90.099609 133 C 85.299609 136.3 80.999609 137.90078 77.099609 137.80078 C 72.799609 137.70078 64.600391 135.40039 58.400391 133.40039 C 50.900391 131.00039 44.900391 129.7 45.400391 125.5 C 45.700391 123.3 48.700781 121.10078 54.300781 118.80078 C 89.300781 103.60078 112.60078 93.499609 124.30078 88.599609 C 157.60078 74.699609 164.59961 72.299219 169.09961 72.199219 z" />
</svg>
