<svg xmlns="http://www.w3.org/2000/svg" width="48" height="48" viewBox="0 0 48 48">
  <path
    d="M 23.039062 0 C 12.177862 -5.9211895e-16 6.74913 0.00087 3.375 3.375 C 0.00087 6.74913 0 12.177863 0 23.039062 L 0 24.960938 C -5.9211895e-16 35.822138 0.00087 41.2508 3.375 44.625 C 6.74913 47.9991 12.177863 48 23.039062 48 L 24.960938 48 C 35.822138 48 41.2508 47.9991 44.625 44.625 C 47.9991 41.2508 48 35.822137 48 24.960938 L 48 23.039062 C 48 12.177862 47.9991 6.74913 44.625 3.375 C 41.2508 0.00087 35.822137 0 24.960938 0 L 23.039062 0 z M 8.0996094 14.599609 L 13.580078 14.599609 C 13.760078 23.759609 17.8 27.639453 21 28.439453 L 21 14.599609 L 26.160156 14.599609 L 26.160156 22.5 C 29.320156 22.16 32.639766 18.559609 33.759766 14.599609 L 38.919922 14.599609 C 38.059922 19.479609 34.460391 23.080547 31.900391 24.560547 C 34.460391 25.760547 38.559141 28.900078 40.119141 34.580078 L 34.439453 34.580078 C 33.219453 30.780078 30.180156 27.839453 26.160156 27.439453 L 26.160156 34.580078 L 25.539062 34.580078 C 14.599063 34.580078 8.3596094 27.079609 8.0996094 14.599609 z "
    style="fill:#0077ff;fill-opacity:1" />
</svg>
