<svg xmlns="http://www.w3.org/2000/svg" viewBox="0 0 28.57 20" preserveAspectRatio="xMidYMid meet">
  <path
    d="M 14.285156 0 C 14.285156 0 5.3502369 0.00029047429 3.1230469 0.59765625 C 1.8930469 0.92691325 0.92691325 1.8930369 0.59765625 3.1230469 C 0.00029047429 5.3502269 -7.4014868e-17 10 0 10 C 0 10 0.00029047429 14.649753 0.59765625 16.876953 C 0.92691325 18.106953 1.8930469 19.073144 3.1230469 19.402344 C 5.3502369 19.999744 14.285156 20 14.285156 20 C 14.285156 20 23.220166 19.999744 25.447266 19.402344 C 26.677266 19.073144 27.643456 18.106953 27.972656 16.876953 C 28.570056 14.649753 28.570312 10 28.570312 10 C 28.570312 10 28.567656 5.3502269 27.972656 3.1230469 C 27.643456 1.8930369 26.677266 0.92691325 25.447266 0.59765625 C 23.220166 0.00029047429 14.285156 -7.4014868e-17 14.285156 0 z M 11.425781 5.7148438 L 18.847656 10 L 11.425781 14.285156 L 11.425781 5.7148438 z "
    style="fill:#ff0000;fill-opacity:1" />
</svg>
